<?xml version="1.0" encoding="utf-8"?>
<svg xmlns="http://www.w3.org/2000/svg" viewBox="0 0 500 500" xmlns:bx="https://boxy-svg.com" width="500px" height="500px"><defs><bx:export><bx:file format="svg"/></bx:export></defs><g id="Layer_1"><path d="M 494.363 156.937 L 429.738 226.052 L 405.742 140.579 L 352.061 214.854 L 326.547 156.936 L 283.59 232.92 L 241.489 159.636 L 206.079 233.923 L 155.284 156.937 L 135.352 225.18 L 77.096 147.679 L 79.078 239.429 L -5.637 156.937 L 66.778 392.038 C 79.561 418.238 140.715 438.494 248.457 440.606 C 362.46 442.843 431.717 422.559 443.79 392.036 L 443.788 392.038 L 494.363 156.937 Z M 91.615 380.634 C 77.455 380.634 65.978 369.154 65.978 354.999 C 65.978 340.843 77.455 329.363 91.615 329.363 C 105.774 329.363 117.251 340.843 117.251 354.999 C 117.251 369.157 105.774 380.634 91.615 380.634 Z M 180.946 405.308 C 166.786 405.308 155.309 393.829 155.309 379.673 C 155.309 365.517 166.786 354.037 180.946 354.037 C 195.105 354.037 206.582 365.517 206.582 379.673 C 206.582 393.83 195.105 405.308 180.946 405.308 Z M 315.968 405.308 C 301.809 405.308 290.332 393.829 290.332 379.673 C 290.332 365.517 301.809 354.037 315.968 354.037 C 330.128 354.037 341.605 365.517 341.605 379.673 C 341.605 393.83 330.128 405.308 315.968 405.308 Z M 415.255 380.634 C 401.096 380.634 389.619 369.154 389.619 354.999 C 389.619 340.843 401.096 329.363 415.255 329.363 C 429.415 329.363 440.892 340.843 440.892 354.999 C 440.892 369.157 429.415 380.634 415.255 380.634 Z" style="fill: rgb(51, 152, 164);"/></g></svg>
